<svg width="2406.000000" height="1608.000000" viewBox="0 0 2406 1608" fill="none" xmlns="http://www.w3.org/2000/svg" xmlns:xlink="http://www.w3.org/1999/xlink">
	<desc>
			Created with Pixso.
	</desc>
	<defs>
		<clipPath id="clip104_13757">
			<rect id="Abstract Design" width="2406.000000" height="1608.000000" fill="white" fill-opacity="0"/>
		</clipPath>
		<linearGradient id="paint_linear_104_13762_0" x1="1202.920898" y1="1603.224121" x2="1202.920898" y2="1606.364258" gradientUnits="userSpaceOnUse">
			<stop stop-color="#333333"/>
			<stop offset="1.000000" stop-color="#333333" stop-opacity="0.000000"/>
		</linearGradient>
		<linearGradient id="paint_linear_104_13763_0" x1="1202.920898" y1="1519.301270" x2="1202.920898" y2="1576.666626" gradientUnits="userSpaceOnUse">
			<stop stop-color="#333333"/>
			<stop offset="1.000000" stop-color="#333333" stop-opacity="0.000000"/>
		</linearGradient>
		<linearGradient id="paint_linear_104_13764_0" x1="1202.920898" y1="1441.850098" x2="1202.920898" y2="1546.968994" gradientUnits="userSpaceOnUse">
			<stop stop-color="#333333"/>
			<stop offset="1.000000" stop-color="#333333" stop-opacity="0.000000"/>
		</linearGradient>
		<linearGradient id="paint_linear_104_13765_0" x1="1202.936768" y1="1367.020020" x2="1202.936768" y2="1517.303711" gradientUnits="userSpaceOnUse">
			<stop stop-color="#333333"/>
			<stop offset="1.000000" stop-color="#333333" stop-opacity="0.000000"/>
		</linearGradient>
		<linearGradient id="paint_linear_104_13766_0" x1="1202.920898" y1="1302.382812" x2="1202.920898" y2="1493.533325" gradientUnits="userSpaceOnUse">
			<stop stop-color="#333333"/>
			<stop offset="1.000000" stop-color="#333333" stop-opacity="0.000000"/>
		</linearGradient>
		<linearGradient id="paint_linear_104_13767_0" x1="1202.920776" y1="1236.414551" x2="1202.920776" y2="1474.538330" gradientUnits="userSpaceOnUse">
			<stop stop-color="#333333"/>
			<stop offset="1.000000" stop-color="#333333" stop-opacity="0.000000"/>
		</linearGradient>
		<linearGradient id="paint_linear_104_13768_0" x1="1202.904663" y1="1177.473145" x2="1202.904663" y2="1457.719849" gradientUnits="userSpaceOnUse">
			<stop stop-color="#333333"/>
			<stop offset="1.000000" stop-color="#333333" stop-opacity="0.000000"/>
		</linearGradient>
		<linearGradient id="paint_linear_104_13769_0" x1="1202.920898" y1="1125.176270" x2="1202.920898" y2="1442.517944" gradientUnits="userSpaceOnUse">
			<stop stop-color="#333333"/>
			<stop offset="1.000000" stop-color="#333333" stop-opacity="0.000000"/>
		</linearGradient>
		<linearGradient id="paint_linear_104_13770_0" x1="1202.920898" y1="1073.080078" x2="1202.920898" y2="1428.310547" gradientUnits="userSpaceOnUse">
			<stop stop-color="#333333"/>
			<stop offset="1.000000" stop-color="#333333" stop-opacity="0.000000"/>
		</linearGradient>
		<linearGradient id="paint_linear_104_13771_0" x1="1202.920898" y1="1022.064453" x2="1202.920898" y2="1414.595825" gradientUnits="userSpaceOnUse">
			<stop stop-color="#333333"/>
			<stop offset="1.000000" stop-color="#333333" stop-opacity="0.000000"/>
		</linearGradient>
		<linearGradient id="paint_linear_104_13772_0" x1="1202.904663" y1="975.487061" x2="1202.904663" y2="1400.340210" gradientUnits="userSpaceOnUse">
			<stop stop-color="#333333"/>
			<stop offset="1.000000" stop-color="#333333" stop-opacity="0.000000"/>
		</linearGradient>
		<linearGradient id="paint_linear_104_13773_0" x1="1202.920898" y1="930.884521" x2="1202.920898" y2="1385.690674" gradientUnits="userSpaceOnUse">
			<stop stop-color="#333333"/>
			<stop offset="1.000000" stop-color="#333333" stop-opacity="0.000000"/>
		</linearGradient>
		<linearGradient id="paint_linear_104_13774_0" x1="1202.920898" y1="888.156738" x2="1202.920898" y2="1370.303467" gradientUnits="userSpaceOnUse">
			<stop stop-color="#333333"/>
			<stop offset="1.000000" stop-color="#333333" stop-opacity="0.000000"/>
		</linearGradient>
		<linearGradient id="paint_linear_104_13775_0" x1="1202.936768" y1="845.823730" x2="1202.936768" y2="1353.404297" gradientUnits="userSpaceOnUse">
			<stop stop-color="#333333"/>
			<stop offset="1.000000" stop-color="#333333" stop-opacity="0.000000"/>
		</linearGradient>
		<linearGradient id="paint_linear_104_13776_0" x1="1202.920898" y1="816.259766" x2="1202.920898" y2="1321.621582" gradientUnits="userSpaceOnUse">
			<stop stop-color="#333333"/>
			<stop offset="1.000000" stop-color="#333333" stop-opacity="0.000000"/>
		</linearGradient>
		<linearGradient id="paint_linear_104_13777_0" x1="1202.936890" y1="796.345459" x2="1202.936890" y2="1280.335083" gradientUnits="userSpaceOnUse">
			<stop stop-color="#333333"/>
			<stop offset="1.000000" stop-color="#333333" stop-opacity="0.000000"/>
		</linearGradient>
		<linearGradient id="paint_linear_104_13778_0" x1="1202.936768" y1="776.587158" x2="1202.936768" y2="1243.591064" gradientUnits="userSpaceOnUse">
			<stop stop-color="#333333"/>
			<stop offset="1.000000" stop-color="#333333" stop-opacity="0.000000"/>
		</linearGradient>
		<linearGradient id="paint_linear_104_13779_0" x1="1202.904663" y1="753.544434" x2="1202.904663" y2="1211.275391" gradientUnits="userSpaceOnUse">
			<stop stop-color="#333333"/>
			<stop offset="1.000000" stop-color="#333333" stop-opacity="0.000000"/>
		</linearGradient>
		<linearGradient id="paint_linear_104_13780_0" x1="1202.920776" y1="730.883789" x2="1202.920776" y2="1183.420532" gradientUnits="userSpaceOnUse">
			<stop stop-color="#333333"/>
			<stop offset="1.000000" stop-color="#333333" stop-opacity="0.000000"/>
		</linearGradient>
		<linearGradient id="paint_linear_104_13781_0" x1="1202.936890" y1="705.304688" x2="1202.936890" y2="1158.675537" gradientUnits="userSpaceOnUse">
			<stop stop-color="#333333"/>
			<stop offset="1.000000" stop-color="#333333" stop-opacity="0.000000"/>
		</linearGradient>
		<linearGradient id="paint_linear_104_13782_0" x1="1202.936890" y1="679.206299" x2="1202.936890" y2="1138.635986" gradientUnits="userSpaceOnUse">
			<stop stop-color="#333333"/>
			<stop offset="1.000000" stop-color="#333333" stop-opacity="0.000000"/>
		</linearGradient>
		<linearGradient id="paint_linear_104_13783_0" x1="1202.936890" y1="651.375732" x2="1202.936890" y2="1120.356934" gradientUnits="userSpaceOnUse">
			<stop stop-color="#333333"/>
			<stop offset="1.000000" stop-color="#333333" stop-opacity="0.000000"/>
		</linearGradient>
		<linearGradient id="paint_linear_104_13784_0" x1="1202.936890" y1="619.934082" x2="1202.936890" y2="1101.671021" gradientUnits="userSpaceOnUse">
			<stop stop-color="#333333"/>
			<stop offset="1.000000" stop-color="#333333" stop-opacity="0.000000"/>
		</linearGradient>
		<linearGradient id="paint_linear_104_13785_0" x1="1202.920776" y1="586.298828" x2="1202.920776" y2="1079.567261" gradientUnits="userSpaceOnUse">
			<stop stop-color="#333333"/>
			<stop offset="1.000000" stop-color="#333333" stop-opacity="0.000000"/>
		</linearGradient>
		<linearGradient id="paint_linear_104_13786_0" x1="1202.936890" y1="554.277344" x2="1202.936890" y2="1049.881836" gradientUnits="userSpaceOnUse">
			<stop stop-color="#333333"/>
			<stop offset="1.000000" stop-color="#333333" stop-opacity="0.000000"/>
		</linearGradient>
		<linearGradient id="paint_linear_104_13787_0" x1="1202.904663" y1="522.374512" x2="1202.904663" y2="1011.195801" gradientUnits="userSpaceOnUse">
			<stop stop-color="#333333"/>
			<stop offset="1.000000" stop-color="#333333" stop-opacity="0.000000"/>
		</linearGradient>
		<linearGradient id="paint_linear_104_13788_0" x1="1202.920898" y1="481.969727" x2="1202.920898" y2="959.692932" gradientUnits="userSpaceOnUse">
			<stop stop-color="#333333"/>
			<stop offset="1.000000" stop-color="#333333" stop-opacity="0.000000"/>
		</linearGradient>
		<linearGradient id="paint_linear_104_13789_0" x1="1202.920898" y1="436.249512" x2="1202.920898" y2="891.213745" gradientUnits="userSpaceOnUse">
			<stop stop-color="#333333"/>
			<stop offset="1.000000" stop-color="#333333" stop-opacity="0.000000"/>
		</linearGradient>
		<linearGradient id="paint_linear_104_13790_0" x1="1202.920898" y1="415.124023" x2="1202.920898" y2="857.395569" gradientUnits="userSpaceOnUse">
			<stop stop-color="#333333"/>
			<stop offset="1.000000" stop-color="#333333" stop-opacity="0.000000"/>
		</linearGradient>
		<linearGradient id="paint_linear_104_13791_0" x1="1202.904663" y1="399.489502" x2="1202.904663" y2="820.536255" gradientUnits="userSpaceOnUse">
			<stop stop-color="#333333"/>
			<stop offset="1.000000" stop-color="#333333" stop-opacity="0.000000"/>
		</linearGradient>
		<linearGradient id="paint_linear_104_13792_0" x1="1202.920898" y1="388.205566" x2="1202.920898" y2="783.106812" gradientUnits="userSpaceOnUse">
			<stop stop-color="#333333"/>
			<stop offset="1.000000" stop-color="#333333" stop-opacity="0.000000"/>
		</linearGradient>
		<linearGradient id="paint_linear_104_13793_0" x1="1202.904663" y1="379.738770" x2="1202.904663" y2="755.887817" gradientUnits="userSpaceOnUse">
			<stop stop-color="#333333"/>
			<stop offset="1.000000" stop-color="#333333" stop-opacity="0.000000"/>
		</linearGradient>
		<linearGradient id="paint_linear_104_13794_0" x1="1202.936890" y1="380.393799" x2="1202.936890" y2="733.517517" gradientUnits="userSpaceOnUse">
			<stop stop-color="#333333"/>
			<stop offset="1.000000" stop-color="#333333" stop-opacity="0.000000"/>
		</linearGradient>
		<linearGradient id="paint_linear_104_13795_0" x1="1202.920776" y1="372.634766" x2="1202.920776" y2="715.329834" gradientUnits="userSpaceOnUse">
			<stop stop-color="#333333"/>
			<stop offset="1.000000" stop-color="#333333" stop-opacity="0.000000"/>
		</linearGradient>
		<linearGradient id="paint_linear_104_13796_0" x1="1202.921143" y1="362.750244" x2="1202.921143" y2="708.812134" gradientUnits="userSpaceOnUse">
			<stop stop-color="#333333"/>
			<stop offset="1.000000" stop-color="#333333" stop-opacity="0.000000"/>
		</linearGradient>
		<linearGradient id="paint_linear_104_13797_0" x1="1202.904663" y1="349.209717" x2="1202.904663" y2="697.827637" gradientUnits="userSpaceOnUse">
			<stop stop-color="#333333"/>
			<stop offset="1.000000" stop-color="#333333" stop-opacity="0.000000"/>
		</linearGradient>
		<linearGradient id="paint_linear_104_13798_0" x1="1202.921021" y1="330.737061" x2="1202.921021" y2="686.956665" gradientUnits="userSpaceOnUse">
			<stop stop-color="#333333"/>
			<stop offset="1.000000" stop-color="#333333" stop-opacity="0.000000"/>
		</linearGradient>
		<linearGradient id="paint_linear_104_13799_0" x1="1202.952759" y1="288.530518" x2="1202.952759" y2="675.633179" gradientUnits="userSpaceOnUse">
			<stop stop-color="#333333"/>
			<stop offset="1.000000" stop-color="#333333" stop-opacity="0.000000"/>
		</linearGradient>
		<linearGradient id="paint_linear_104_13800_0" x1="1202.920898" y1="240.286865" x2="1202.920898" y2="662.385620" gradientUnits="userSpaceOnUse">
			<stop stop-color="#333333"/>
			<stop offset="1.000000" stop-color="#333333" stop-opacity="0.000000"/>
		</linearGradient>
		<linearGradient id="paint_linear_104_13801_0" x1="1202.920898" y1="192.927734" x2="1202.920898" y2="646.820740" gradientUnits="userSpaceOnUse">
			<stop stop-color="#333333"/>
			<stop offset="1.000000" stop-color="#333333" stop-opacity="0.000000"/>
		</linearGradient>
		<linearGradient id="paint_linear_104_13802_0" x1="1202.904663" y1="147.863770" x2="1202.904663" y2="626.213501" gradientUnits="userSpaceOnUse">
			<stop stop-color="#333333"/>
			<stop offset="1.000000" stop-color="#333333" stop-opacity="0.000000"/>
		</linearGradient>
		<linearGradient id="paint_linear_104_13803_0" x1="1202.904541" y1="105.783691" x2="1202.904541" y2="592.039734" gradientUnits="userSpaceOnUse">
			<stop stop-color="#333333"/>
			<stop offset="1.000000" stop-color="#333333" stop-opacity="0.000000"/>
		</linearGradient>
		<linearGradient id="paint_linear_104_13804_0" x1="1202.920898" y1="84.295410" x2="1202.920898" y2="546.388672" gradientUnits="userSpaceOnUse">
			<stop stop-color="#333333"/>
			<stop offset="1.000000" stop-color="#333333" stop-opacity="0.000000"/>
		</linearGradient>
		<linearGradient id="paint_linear_104_13805_0" x1="1202.920898" y1="66.423584" x2="1202.920898" y2="499.685608" gradientUnits="userSpaceOnUse">
			<stop stop-color="#333333"/>
			<stop offset="1.000000" stop-color="#333333" stop-opacity="0.000000"/>
		</linearGradient>
		<linearGradient id="paint_linear_104_13806_0" x1="1202.921021" y1="49.726074" x2="1202.921021" y2="452.789032" gradientUnits="userSpaceOnUse">
			<stop stop-color="#333333"/>
			<stop offset="1.000000" stop-color="#333333" stop-opacity="0.000000"/>
		</linearGradient>
		<linearGradient id="paint_linear_104_13807_0" x1="1202.937134" y1="36.405273" x2="1202.937134" y2="405.767151" gradientUnits="userSpaceOnUse">
			<stop stop-color="#333333"/>
			<stop offset="1.000000" stop-color="#333333" stop-opacity="0.000000"/>
		</linearGradient>
		<linearGradient id="paint_linear_104_13808_0" x1="1202.904663" y1="25.350586" x2="1202.904663" y2="357.577332" gradientUnits="userSpaceOnUse">
			<stop stop-color="#333333"/>
			<stop offset="1.000000" stop-color="#333333" stop-opacity="0.000000"/>
		</linearGradient>
		<linearGradient id="paint_linear_104_13809_0" x1="1202.936890" y1="17.851074" x2="1202.936890" y2="309.661224" gradientUnits="userSpaceOnUse">
			<stop stop-color="#333333"/>
			<stop offset="1.000000" stop-color="#333333" stop-opacity="0.000000"/>
		</linearGradient>
		<linearGradient id="paint_linear_104_13810_0" x1="1202.920776" y1="11.593262" x2="1202.920776" y2="262.347412" gradientUnits="userSpaceOnUse">
			<stop stop-color="#333333"/>
			<stop offset="1.000000" stop-color="#333333" stop-opacity="0.000000"/>
		</linearGradient>
		<linearGradient id="paint_linear_104_13811_0" x1="1202.920776" y1="7.572510" x2="1202.920776" y2="209.990738" gradientUnits="userSpaceOnUse">
			<stop stop-color="#333333"/>
			<stop offset="1.000000" stop-color="#333333" stop-opacity="0.000000"/>
		</linearGradient>
		<linearGradient id="paint_linear_104_13812_0" x1="1202.921021" y1="4.970703" x2="1202.921021" y2="165.227936" gradientUnits="userSpaceOnUse">
			<stop stop-color="#333333"/>
			<stop offset="1.000000" stop-color="#333333" stop-opacity="0.000000"/>
		</linearGradient>
		<linearGradient id="paint_linear_104_13813_0" x1="1202.920776" y1="3.599121" x2="1202.920776" y2="121.896202" gradientUnits="userSpaceOnUse">
			<stop stop-color="#333333"/>
			<stop offset="1.000000" stop-color="#333333" stop-opacity="0.000000"/>
		</linearGradient>
		<linearGradient id="paint_linear_104_13814_0" x1="1202.920898" y1="2.546875" x2="1202.920898" y2="80.087227" gradientUnits="userSpaceOnUse">
			<stop stop-color="#333333"/>
			<stop offset="1.000000" stop-color="#333333" stop-opacity="0.000000"/>
		</linearGradient>
		<linearGradient id="paint_linear_104_13815_0" x1="1202.921021" y1="1.957520" x2="1202.921021" y2="39.540604" gradientUnits="userSpaceOnUse">
			<stop stop-color="#333333"/>
			<stop offset="1.000000" stop-color="#333333" stop-opacity="0.000000"/>
		</linearGradient>
		<linearGradient id="paint_linear_104_13816_0" x1="1202.920898" y1="1.619385" x2="1202.920898" y2="4.297670" gradientUnits="userSpaceOnUse">
			<stop stop-color="#333333"/>
			<stop offset="1.000000" stop-color="#333333" stop-opacity="0.000000"/>
		</linearGradient>
	</defs>
	<rect id="Abstract Design" width="2406.000000" height="1608.000000" fill="#FFFFFF" fill-opacity="0"/>
	<g clipPath="url(#clip104_13757)">
		<path id="Vector" d="M1.05859 1606.36C802.234 1602.96 1603.61 1601.46 2404.78 1606.36" stroke="url(#paint_linear_104_13762_0)" stroke-opacity="1.000000" strokeWidth="1.000000"/>
		<path id="Vector" d="M1.05859 1574.39C233.004 1558.87 468.504 1553.58 700.766 1565.83C795.633 1570.83 890.758 1573.3 985.656 1568.04C1089.14 1562.3 1187.66 1539.4 1289.78 1525.42C1471.37 1500.53 1655.5 1559 1836.32 1568.75C2026.79 1579.04 2213.83 1552.29 2404.78 1576.67" stroke="url(#paint_linear_104_13763_0)" stroke-opacity="1.000000" strokeWidth="1.000000"/>
		<path id="Vector" d="M1.05859 1538.66C241.977 1512.01 491.676 1507.14 733.168 1531.06C829.992 1540.65 927.613 1545.72 1024.6 1535.55C1139.05 1523.59 1238.37 1479.52 1348.49 1452.62C1532.42 1407.69 1714.02 1516.79 1894.59 1534.53C1973.84 1542.32 2052.3 1525.29 2131.37 1520.19C2224.86 1514.13 2314.05 1523.78 2404.78 1546.97" stroke="url(#paint_linear_104_13764_0)" stroke-opacity="1.000000" strokeWidth="1.000000"/>
		<path id="Vector" d="M1.05859 1499.92C249.379 1463.91 504.688 1468.33 753.199 1501.72C850.984 1514.83 948.832 1522.05 1046.84 1506.85C1097.83 1498.93 1147.57 1485.62 1196.22 1468.46C1262.37 1445.14 1323.36 1402.3 1388.97 1380.87C1573.09 1320.74 1747.83 1474.17 1922.44 1501.59C2002.56 1514.16 2075.66 1488.09 2154.6 1479.08C2242.52 1469.04 2322.57 1486.23 2404.82 1517.3" stroke="url(#paint_linear_104_13765_0)" stroke-opacity="1.000000" strokeWidth="1.000000"/>
		<path id="Vector" d="M1.05859 1458.74C244.156 1416.12 492.508 1429.46 734.738 1472.6C839.863 1491.33 945.145 1503.67 1050.91 1482.19C1185.2 1454.89 1284.23 1374.11 1407.17 1322.47C1606.55 1238.74 1765.33 1441.87 1951.31 1472.76C2024.74 1484.94 2085.28 1453.84 2155.57 1440.27C2245.79 1422.86 2323.73 1448.48 2404.78 1487.64" stroke="url(#paint_linear_104_13766_0)" stroke-opacity="1.000000" strokeWidth="1.000000"/>
		<path id="Vector" d="M1.05859 1415.8C244.348 1365.83 482.988 1395.4 722.688 1449.51C828.133 1473.3 933.863 1486.32 1040.24 1459.99C1095.46 1446.33 1147.64 1424.04 1198.02 1397.87C1273.43 1358.71 1340.16 1293.29 1415.83 1258.3C1619.21 1164.24 1764.34 1401.43 1945.25 1440.81C2027.59 1458.74 2082.36 1419.36 2158.29 1400.02C2248.54 1377.06 2327.22 1414.1 2404.78 1457.94" stroke="url(#paint_linear_104_13767_0)" stroke-opacity="1.000000" strokeWidth="1.000000"/>
		<path id="Vector" d="M1.05859 1371.77C239.539 1315.1 458.277 1362.4 689.355 1425.36C796.66 1454.57 903.898 1472.24 1013.16 1441.94C1070.97 1425.9 1124.79 1399.48 1176.45 1369.36C1257.41 1322.18 1327.24 1246.98 1408.74 1204.2C1622.8 1091.85 1749.75 1367.31 1934.74 1411.18C2021.69 1431.8 2072.62 1384.53 2150.05 1360.12C2243.77 1330.59 2327.06 1379.66 2404.75 1428.24" stroke="url(#paint_linear_104_13768_0)" stroke-opacity="1.000000" strokeWidth="1.000000"/>
		<path id="Vector" d="M1.05859 1327.25C228.805 1264.46 422.223 1326.48 638.047 1397.49C745.09 1432.7 851.848 1459.06 963.414 1430.2C1133.15 1386.29 1243.79 1252.69 1386.44 1162.66C1618.09 1016.52 1721.32 1341.97 1923.43 1383.41C2010.93 1401.37 2060.41 1345.53 2137.75 1318.56C2235.69 1284.41 2326.1 1345.92 2404.78 1398.48" stroke="url(#paint_linear_104_13769_0)" stroke-opacity="1.000000" strokeWidth="1.000000"/>
		<path id="Vector" d="M1.05859 1282.96C222.039 1211.54 391.711 1291.81 594.648 1371.38C704.227 1414.32 815.055 1449.15 931.812 1413.65C1104.91 1361.02 1217.73 1217.67 1360.83 1117.96C1604.12 948.463 1683.98 1310.64 1892.95 1353.23C1981.89 1371.35 2036.79 1309.39 2112.94 1279.15C2220.5 1236.43 2319.24 1309.13 2404.78 1368.88" stroke="url(#paint_linear_104_13770_0)" stroke-opacity="1.000000" strokeWidth="1.000000"/>
		<path id="Vector" d="M1.05859 1239.47C100.059 1201.73 196.691 1193.04 299.09 1223.5C393.637 1251.63 474.816 1308.43 564.043 1348.61C669.422 1396.08 777.688 1437.7 893 1399.89C1076.16 1339.82 1186.41 1176.71 1335.89 1068.5C1577.93 893.269 1648.35 1266.8 1847.05 1317.18C1947.66 1342.68 2005.96 1268.75 2091.5 1234.95C2207.1 1189.25 2315.11 1274.56 2404.78 1339.18" stroke="url(#paint_linear_104_13771_0)" stroke-opacity="1.000000" strokeWidth="1.000000"/>
		<path id="Vector" d="M1.05859 1197.49C90.1562 1157.12 178.934 1144.54 273.031 1176.1C365.719 1207.18 441.004 1272.6 526.383 1317.89C625.707 1370.58 727.914 1423.46 842.203 1389.73C1033.83 1333.22 1154.11 1150.03 1302.82 1031.49C1556.4 829.352 1598.48 1235.85 1806.22 1282.64C1912.82 1306.66 1979.2 1220.94 2070.73 1187.52C2193.86 1142.59 2311.97 1240.76 2404.75 1309.45" stroke="url(#paint_linear_104_13772_0)" stroke-opacity="1.000000" strokeWidth="1.000000"/>
		<path id="Vector" d="M1.05859 1157.63C206.977 1046.98 330.656 1177.87 498.375 1283.64C593.625 1343.7 696.184 1413.2 812.91 1374.52C1001.94 1311.89 1126.29 1123.57 1269.59 998.333C1362.08 917.515 1450.63 898.753 1529.86 1001C1598.57 1089.64 1642.71 1217.31 1764.98 1243C1871.45 1265.36 1946.63 1177.61 2037.98 1141.85C2172.39 1089.19 2305.46 1204.32 2404.78 1279.79" stroke="url(#paint_linear_104_13773_0)" stroke-opacity="1.000000" strokeWidth="1.000000"/>
		<path id="Vector" d="M1.05859 1120.56C200.504 995.126 324.793 1125.37 482.094 1243.58C565.996 1306.63 660.992 1393.96 774.352 1364.36C843.355 1346.33 904.539 1295.12 957.227 1249.9C1058.5 1163.02 1142.57 1060.52 1238.72 968.732C1330.89 880.729 1421.76 846.093 1500.79 962.189C1559.7 1048.72 1604.89 1182.39 1723.31 1201.28C1835.9 1219.24 1918.3 1122.58 2017.05 1089.16C2159.48 1040.92 2303.06 1170.55 2404.78 1250.03" stroke="url(#paint_linear_104_13774_0)" stroke-opacity="1.000000" strokeWidth="1.000000"/>
		<path id="Vector" d="M1.05859 1086.94C78.8125 1030.98 164.609 995.864 259.348 1029.95C343.703 1060.33 409.273 1130.88 474.113 1189.67C547.184 1255.93 639.488 1373.56 751.66 1350.44C814.801 1337.42 870.34 1289.06 917.52 1247.88C1021.65 1156.96 1112.93 1051.63 1206.54 950.323C1294.17 855.458 1391.28 787.211 1473 919.246C1528.03 1008.11 1570.75 1148.68 1695.55 1153.62C1806.32 1158.01 1889.55 1069.5 1989.39 1036.85C2142.52 986.788 2297.87 1133.93 2404.82 1220.36" stroke="url(#paint_linear_104_13775_0)" stroke-opacity="1.000000" strokeWidth="1.000000"/>
		<path id="Vector" d="M1.05859 1056.09C80.8633 993.875 169.77 952.568 270.562 988.423C355.625 1018.67 426.07 1087.62 488.949 1149.61C554.332 1214.11 642.082 1340.79 749.129 1319.17C809.031 1307.08 861.719 1258.62 905.883 1219.3C1006.88 1129.34 1097.06 1026.78 1188.3 927.264C1271.86 836.151 1370 753.088 1452.88 884.514C1507.11 970.496 1548.29 1107.73 1670.75 1109.43C1780.55 1110.93 1872.12 1031.17 1974.64 1003.85C2134.22 961.292 2290.17 1100.8 2404.78 1189.92" stroke="url(#paint_linear_104_13776_0)" stroke-opacity="1.000000" strokeWidth="1.000000"/>
		<path id="Vector" d="M1.05859 1021.71C89.0977 952.408 183.035 915.141 290.66 963.248C379.66 1003.05 457.605 1078.35 526.48 1145.03C588.273 1204.87 664.84 1305.86 762.27 1274.4C821.723 1255.19 873.418 1203.88 917.773 1162.63C1006.68 1079.99 1089.3 990.476 1173.18 902.794C1253.11 819.186 1350.09 737.854 1436.02 854.431C1497.14 937.366 1536.05 1070.01 1658.06 1076.07C1766.74 1081.46 1871.83 1009.72 1976.6 990.476C2135.05 961.355 2282.42 1070.65 2404.82 1154.87" stroke="url(#paint_linear_104_13777_0)" stroke-opacity="1.000000" strokeWidth="1.000000"/>
		<path id="Vector" d="M1.05859 983.517C95.7344 911.229 192.203 879.447 302.805 936.533C387.547 980.245 465.746 1050.64 535.453 1114.88C600.418 1174.75 680.191 1277.93 778.359 1232.26C829.605 1208.43 871.785 1163.05 912.039 1124.66C996.715 1043.84 1076.8 958.148 1159.49 875.342C1245.04 789.68 1341.95 723.262 1430.7 837.145C1491.79 915.558 1535.79 1039 1651.62 1044.13C1758.18 1048.88 1864.04 997.788 1968.04 980.791C2128.58 954.557 2271.11 1036.47 2404.82 1115.39" stroke="url(#paint_linear_104_13778_0)" stroke-opacity="1.000000" strokeWidth="1.000000"/>
		<path id="Vector" d="M1.05859 942.209C110.25 863.379 214.414 845.548 330.688 918.894C414.242 971.586 491.484 1042.98 566.254 1107.34C628.688 1161.09 698.906 1245.47 786.273 1196.6C833.066 1170.43 872.008 1123.76 909.281 1086.02C988.637 1005.61 1065.91 923.256 1147.57 845.163C1232.18 764.248 1329.04 705.847 1419.09 808.089C1486.34 884.418 1532.9 1006.16 1648.44 1017.19C1750.27 1026.91 1861.22 987.076 1961.38 971.554C2121.43 946.763 2262.26 1003.37 2404.75 1072.48" stroke="url(#paint_linear_104_13779_0)" stroke-opacity="1.000000" strokeWidth="1.000000"/>
		<path id="Vector" d="M1.05859 898.561C119.355 818.929 228.129 810.398 346.684 893.718C436.133 956.577 516.512 1036.02 601.574 1104.9C660.062 1152.24 724.773 1217.15 797.879 1162.76C846.207 1126.81 885.66 1072.64 925.789 1028.51C993.637 953.947 1063.18 880.377 1137.83 812.579C1229.3 729.483 1328.49 690.229 1420.6 790.386C1488.04 863.7 1539.7 978.128 1650.5 990.54C1755.36 1002.28 1868.75 974.729 1972.62 960.458C2125.38 939.483 2261.33 973.639 2404.78 1026.78" stroke="url(#paint_linear_104_13780_0)" stroke-opacity="1.000000" strokeWidth="1.000000"/>
		<path id="Vector" d="M1.05859 853.245C135.922 768.866 250.566 777.846 374.371 876.753C468.312 951.799 548.371 1039.13 646.281 1109.94C713.457 1158.5 761.887 1185.92 823.195 1118.25C927.391 1003.24 1011.78 872.167 1133.86 773.004C1223.46 700.235 1322.05 673.103 1411.34 757.802C1486.79 829.352 1537.55 939.195 1646.46 964.98C1747 988.744 1873.18 965.3 1974.26 951.51C2123.45 931.145 2258.09 943.107 2404.82 979.283" stroke="url(#paint_linear_104_13781_0)" stroke-opacity="1.000000" strokeWidth="1.000000"/>
		<path id="Vector" d="M1.05859 807.031C152.078 718.868 275.051 747.507 402.383 860.365C493.598 941.215 569.461 1034.83 672.98 1101.25C748.969 1150.03 788.969 1158.66 840.953 1080.98C923.32 957.924 1006.23 832.142 1126.23 741.382C1223.24 667.971 1321.54 651.487 1416.34 736.122C1495.28 806.614 1551.46 920.016 1663.09 944.967C1762.09 967.096 1877.63 956.577 1977.43 942.979C2122.33 923.223 2258.45 914.308 2404.82 930.632" stroke="url(#paint_linear_104_13782_0)" stroke-opacity="1.000000" strokeWidth="1.000000"/>
		<path id="Vector" d="M1.05859 760.656C165.664 669.735 294.441 714.538 424.914 838.941C517.25 926.976 593.367 1034.51 707.047 1096.92C791.434 1143.26 821.051 1119.18 861.305 1039.74C925.34 913.41 1006.33 785.736 1124.95 703.442C1225.36 633.752 1326.92 631.603 1421.24 711.684C1503.52 781.566 1563.45 892.019 1673.67 922.999C1910.07 989.45 2167.33 890.126 2404.82 881.884" stroke="url(#paint_linear_104_13783_0)" stroke-opacity="1.000000" strokeWidth="1.000000"/>
		<path id="Vector" d="M1.05859 714.827C82.9453 671.178 159.93 645.265 251.559 677.048C327.355 703.346 389.438 758.54 445.043 814.76C536.77 907.573 615.195 1032.46 737.398 1087.62C829.062 1128.99 850.758 1073.25 881.688 995.479C932.102 868.607 1008.22 738.624 1127.16 664.347C1386.38 502.422 1479.93 830.058 1686.16 901.094C1927.02 984.062 2169.28 879.383 2404.82 833.746" stroke="url(#paint_linear_104_13784_0)" stroke-opacity="1.000000" strokeWidth="1.000000"/>
		<path id="Vector" d="M1.05859 670.281C86.4727 625.061 165.184 599.853 258.48 634.201C336.746 663 400.012 721.851 456.707 781.47C545.871 875.213 638.078 1037.49 771.082 1074.82C864.188 1100.96 878.867 1013.79 902.457 943.62C943.734 820.789 1014.89 685.354 1133.92 620.378C1381.02 485.488 1505.47 788.782 1692.03 874.508C1936.79 986.98 2173.8 871.653 2404.78 787.051" stroke="url(#paint_linear_104_13785_0)" stroke-opacity="1.000000" strokeWidth="1.000000"/>
		<path id="Vector" d="M1.05859 627.787C87.3047 580.835 164.992 555.339 259.922 588.596C338.637 616.177 402.961 677.721 458.922 737.693C549.715 835.029 647.051 1019.92 788.23 1047.5C884.188 1066.26 897.648 970.335 918.609 898.304C954.602 774.735 1019.41 637.953 1143.79 580.482C1391.25 466.15 1524.7 757.321 1707.22 851.481C1802.25 900.485 1925.29 925.597 2031.15 908.535C2165.34 886.919 2288.06 807.351 2404.82 742.793" stroke="url(#paint_linear_104_13786_0)" stroke-opacity="1.000000" strokeWidth="1.000000"/>
		<path id="Vector" d="M1.05859 588.019C92.9141 534.878 181.691 504.25 283.383 550.175C359.695 584.651 420.234 648.023 474.945 709.535C556.93 801.707 660.258 995.896 798.164 1010.46C901.973 1021.42 915.082 907.99 937.324 831.405C971.715 713.031 1033.63 586.127 1158.28 540.458C1403.87 450.435 1545.88 720.375 1723.09 825.856C1812.63 879.158 1929.68 915.655 2034.42 902.602C2174.73 885.091 2296.17 783.491 2404.75 701.55" stroke="url(#paint_linear_104_13787_0)" stroke-opacity="1.000000" strokeWidth="1.000000"/>
		<path id="Vector" d="M1.05859 551.747C87.7852 496.457 173.164 457.972 275.629 499.375C357.738 532.568 423.121 603.028 479.527 668.869C560.164 762.997 661.57 956.256 804.832 959.656C906.973 962.061 925.883 846.991 949.984 770.149C987.258 651.423 1046.2 536.257 1176.93 502.678C1427.27 438.344 1566.27 685.161 1745.39 803.567C1833.08 861.551 1950.03 909.369 2056.85 893.943C2196.55 873.738 2308.79 757.545 2404.78 664.347" stroke="url(#paint_linear_104_13788_0)" stroke-opacity="1.000000" strokeWidth="1.000000"/>
		<path id="Vector" d="M1.05859 519.708C80.6719 461.948 163.359 413.554 264.602 447.484C343.508 473.911 405.652 538.63 458.762 600.013C545.742 700.523 633.238 879.318 782.973 890.736C896.816 899.395 926.395 788.686 959.152 701.101C1003.83 581.605 1066.1 480.421 1202.92 461.916C1445.47 429.108 1585.24 637.793 1753.76 769.155C1838.24 834.997 1952.62 898.048 2063.16 887.272C2209.79 872.968 2317.7 736.539 2404.78 631.956" stroke="url(#paint_linear_104_13789_0)" stroke-opacity="1.000000" strokeWidth="1.000000"/>
		<path id="Vector" d="M1.05859 494.436C80.2852 439.114 161.98 393.573 261.207 425.901C338.477 451.076 399.98 512.941 452.445 572.465C536.961 668.292 626.41 852.25 771.852 857.286C884.316 861.166 922.809 761.49 963.125 673.873C1014.82 561.593 1084.79 458.806 1217.47 440.878C1451.53 409.256 1597.74 604.215 1763.86 728.906C1845.36 790.065 1960.32 852.283 2064.99 850.23C2211.33 847.344 2319.72 708.06 2404.78 606.396" stroke="url(#paint_linear_104_13790_0)" stroke-opacity="1.000000" strokeWidth="1.000000"/>
		<path id="Vector" d="M1.05859 477.15C79.0352 423.752 159.543 379.462 256.816 408.903C331.973 431.641 392.578 489.561 444.211 546.263C527.379 637.632 616.445 819.667 757.176 820.532C867.52 821.206 914.508 733.332 962.676 647.735C1021.52 543.184 1098.76 442.866 1226.73 425.291C1452.33 394.343 1604.73 569.193 1770.94 685.578C1851.64 742.087 1965.35 805.138 2065.22 814.054C2210.82 827.043 2320.97 686.38 2404.75 588.372" stroke="url(#paint_linear_104_13791_0)" stroke-opacity="1.000000" strokeWidth="1.000000"/>
		<path id="Vector" d="M1.05859 466.438C75.8633 415.285 155.828 371.06 249.25 394.792C328.895 414.997 392.16 475.258 446.387 533.595C528.82 622.271 611.477 786.986 749.195 780.861C853.387 776.242 906.492 697.092 960.914 619.192C1027.74 523.492 1108.41 433.758 1230.77 416.376C1452.97 384.786 1608.64 535.936 1781.51 643.758C1861.38 693.596 1962.72 752.703 2054.74 776.531C2203.89 815.145 2317.48 675.283 2404.78 576.505" stroke="url(#paint_linear_104_13792_0)" stroke-opacity="1.000000" strokeWidth="1.000000"/>
		<path id="Vector" d="M1.05859 460.922C73.8125 410.539 152.078 365.351 243.965 384.048C320.465 399.635 382.641 453.257 435.941 507.104C519.527 591.515 597.344 743.114 730.766 737.18C831.977 732.69 892.84 666.047 954.762 594.241C1028.96 508.227 1114.59 426.51 1232.25 409.384C1445.05 378.404 1608.12 499.247 1783.02 595.395C1869.81 643.116 1961.09 701.453 2052.2 740.067C2198.89 802.252 2314.21 667.683 2404.75 569.514" stroke="url(#paint_linear_104_13793_0)" stroke-opacity="1.000000" strokeWidth="1.000000"/>
		<path id="Vector" d="M1.05859 459.222C154.129 350.63 286.523 351.176 425.523 479.94C510.871 558.995 583.402 694.687 712.145 690.068C810.055 686.541 878.129 632.533 947.133 569.129C1028.44 494.436 1118.02 422.181 1231 405.375C1433.77 375.197 1605.46 462.59 1781.93 545.493C1879.07 591.13 1957.66 648.376 2048.13 703.891C2191.01 791.54 2307.64 666.4 2404.82 566.179" stroke="url(#paint_linear_104_13794_0)" stroke-opacity="1.000000" strokeWidth="1.000000"/>
		<path id="Vector" d="M1.05859 459.96C143.52 355.537 274.633 335.269 415.719 451.493C503.309 523.653 570.773 641.866 694.293 639.428C899.957 635.387 1026.62 433.822 1227.63 403.419C1420.19 374.299 1601.07 425.933 1778.18 494.34C1886.45 536.16 1954.61 595.395 2042.43 667.651C2180.18 780.989 2297.26 670.12 2404.78 565.024" stroke="url(#paint_linear_104_13795_0)" stroke-opacity="1.000000" strokeWidth="1.000000"/>
		<path id="Vector" d="M1.05859 461.756C131.34 362.401 261.43 320.324 403.73 418.749C491.707 479.587 556.223 581.252 669.902 585.165C874.316 592.252 1026.42 432.026 1222.6 401.399C1401.6 373.465 1592.9 388.955 1765.59 440.782C1888.53 477.695 1951.31 544.819 2037.98 634.425C2070.34 667.907 2106.75 702.768 2155.37 708.028C2252.1 718.451 2342.57 622.527 2404.78 564.928" stroke="url(#paint_linear_104_13796_0)" stroke-opacity="1.000000" strokeWidth="1.000000"/>
		<path id="Vector" d="M1.05859 463.231C122.27 367.083 251.75 305.988 397.223 386.486C487.219 436.292 549.812 520.83 657.148 527.084C856.848 538.726 1025.08 431.641 1217.18 401.784C1389.52 375.004 1584.79 352.683 1756.9 389.629C1889.3 418.043 1948.84 497.291 2029.1 598.57C2059.83 637.376 2094.64 682.019 2145.44 694.205C2243.57 717.745 2340.39 620.988 2404.75 564.575" stroke="url(#paint_linear_104_13797_0)" stroke-opacity="1.000000" strokeWidth="1.000000"/>
		<path id="Vector" d="M1.05859 462.975C119.355 365.479 250.82 290.017 403.121 355.056C486.164 390.527 547.953 455.534 640.352 464.578C838.934 484.045 1019.5 431.225 1213.4 402.746C1315.57 387.737 1416.24 372.856 1517.55 352.427C1596.3 336.552 1672.83 328.309 1752.89 339.791C1891.22 359.61 1949.64 458.517 2021.38 566.275C2050.09 609.41 2084.61 662.969 2136.79 680.126C2236.78 713.031 2336.52 619.384 2404.78 562.523" stroke="url(#paint_linear_104_13798_0)" stroke-opacity="1.000000" strokeWidth="1.000000"/>
		<path id="Vector" d="M1.05859 459.639C114.996 362.721 246.527 272.923 402.258 314.455C484.816 336.487 551.449 387.737 637.246 398.576C832.973 423.271 1014.31 428.883 1209.88 401.623C1313.43 387.191 1410.51 365.928 1509.29 331.677C1585.34 305.314 1658.31 283.699 1739.85 289.471C1885.04 299.734 1944 416.568 2009.55 530.035C2037.46 578.366 2071.18 640.551 2125.28 664.059C2227.2 708.349 2332.22 615.279 2404.85 557.648" stroke="url(#paint_linear_104_13799_0)" stroke-opacity="1.000000" strokeWidth="1.000000"/>
		<path id="Vector" d="M1.05859 451.846C113.395 354.03 244.41 254.129 402 269.267C486.609 277.381 564.043 317.405 648.047 329.784C840.055 358.103 1008.96 422.726 1206.19 398.641C1310.54 385.876 1404.32 358.616 1498.36 311.985C1569.18 276.868 1636.68 241.333 1717.83 240.307C1875.58 238.383 1935.16 376.255 1998.68 497.868C2026.12 550.4 2059.09 618.743 2114.99 646.901C2218.7 699.176 2328.05 607.101 2404.78 548.508" stroke="url(#paint_linear_104_13800_0)" stroke-opacity="1.000000" strokeWidth="1.000000"/>
		<path id="Vector" d="M1.05859 438.216C115.699 337.225 247.07 230.814 406.199 220.295C491.996 214.618 582.312 240.146 665.801 257.465C853.578 296.399 1009.92 414.836 1209.33 393.285C1311.86 382.22 1402.4 348.834 1488.36 292.518C1557.71 247.074 1621.27 198.358 1707.38 193.323C1868.56 183.926 1927.6 344.056 1986.41 465.572C2014.36 523.268 2046.44 593.054 2104.06 627.209C2207.55 688.529 2326.87 591.643 2404.78 533.915" stroke="url(#paint_linear_104_13801_0)" stroke-opacity="1.000000" strokeWidth="1.000000"/>
		<path id="Vector" d="M1.05859 417.306C197.234 244.893 403.988 111.959 671.059 176.55C861.176 222.54 1007.61 401.399 1213.88 384.53C1318.39 375.967 1406.44 333.986 1485.95 267.503C1548.22 215.452 1603.7 158.366 1688.66 149.162C1850.71 131.619 1910.1 295.629 1965.64 416.985C1995.96 483.211 2028.78 566.05 2094.57 605.498C2200.66 669.094 2323.86 571.374 2404.75 512.492" stroke="url(#paint_linear_104_13802_0)" stroke-opacity="1.000000" strokeWidth="1.000000"/>
		<path id="Vector" d="M1.05859 388.891C189.832 227.51 432.672 49.0042 696.762 123.024C882.137 174.978 1022.19 372.823 1225.93 362.368C1327.82 357.141 1414.38 308.297 1486.3 239.088C1543.35 184.215 1594.34 122.318 1678.25 113.017C1833.69 95.7313 1896.96 257.625 1951.73 372.727C1984.52 441.583 2018.87 525.865 2086.3 568.231C2194.28 636.061 2318.98 543.44 2404.75 483.66" stroke="url(#paint_linear_104_13803_0)" stroke-opacity="1.000000" strokeWidth="1.000000"/>
		<path id="Vector" d="M1.05859 359.193C190.504 204.676 439.211 34.0591 699.133 98.1367C890.18 145.217 1041.52 341.554 1248.37 328.117C1342.11 322.023 1420.67 276.451 1486.5 212.181C1539.03 160.899 1585.08 102.466 1661.78 89.9265C1814.75 64.9113 1890.32 230.878 1949.68 340.945C1983.78 404.125 2020.77 477.342 2082.65 518.104C2190.88 589.398 2312.67 510.471 2404.78 451.14" stroke="url(#paint_linear_104_13804_0)" stroke-opacity="1.000000" strokeWidth="1.000000"/>
		<path id="Vector" d="M1.05859 329.496C194.094 180.431 454.914 15.5864 712.914 81.2675C900.5 129.021 1061.07 308.233 1263.5 297.233C1349.8 292.55 1425.38 246.529 1485.73 187.967C1534.09 141.047 1577.13 85.1481 1646.62 70.4275C1797.19 38.5491 1883.79 205.799 1949.36 310.221C1988.78 372.984 2030 442.064 2097.68 477.567C2204.79 533.723 2311.33 471.73 2404.78 416.215" stroke="url(#paint_linear_104_13805_0)" stroke-opacity="1.000000" strokeWidth="1.000000"/>
		<path id="Vector" d="M1.05859 299.798C200.277 155.383 467.445 3.72009 725.188 67.6052C910.98 113.659 1078.38 279.594 1277.69 265.963C1357.98 260.479 1426.59 220.102 1483.96 166.127C1532.2 120.747 1575.53 65.4244 1644.44 52.6923C1787.6 26.2018 1880.87 183.253 1950.73 280.556C1990.83 336.391 2033.33 393.349 2094.45 427.183C2200.79 486.001 2307.96 432.154 2404.78 379.302" stroke="url(#paint_linear_104_13806_0)" stroke-opacity="1.000000" strokeWidth="1.000000"/>
		<path id="Vector" d="M1.05859 270.101C201.656 134.922 460.492 4.4259 712.016 51.8586C906.688 88.5798 1082.61 251.371 1287.05 237.036C1364.58 231.584 1430.6 192.008 1487.07 141.144C1533.26 99.516 1575.21 51.538 1639.21 39.4473C1771.71 14.3999 1870.36 149.675 1943.17 238.062C1990.83 295.95 2042.91 359.482 2114.22 389.084C2215.05 430.936 2314.31 386.229 2404.82 340.881" stroke="url(#paint_linear_104_13807_0)" stroke-opacity="1.000000" strokeWidth="1.000000"/>
		<path id="Vector" d="M1.05859 240.403C206.656 113.21 470.844 -3.49561 720.027 44.1937C909.988 80.562 1094.56 225.009 1293.24 210.353C1437.52 199.705 1500.5 58.1766 1630.56 29.5052C1761.32 0.705688 1867.79 128.155 1948.17 210.641C1996.5 260.255 2046.95 312.37 2112.2 339.31C2213.22 381.002 2311.26 344.024 2404.75 301.37" stroke="url(#paint_linear_104_13808_0)" stroke-opacity="1.000000" strokeWidth="1.000000"/>
		<path id="Vector" d="M1.05859 210.705C212.074 92.6527 471.258 -3.17493 718.105 36.5608C909.602 67.3809 1097.57 198.326 1295.86 183.477C1432.07 173.279 1504.89 46.1179 1630.62 21.4554C1753.21 -2.56555 1858.69 98.6179 1942.88 172.541C1994.87 218.21 2048.36 266.124 2113.84 291.492C2214.12 330.362 2310.04 300.536 2404.82 261.313" stroke="url(#paint_linear_104_13809_0)" stroke-opacity="1.000000" strokeWidth="1.000000"/>
		<path id="Vector" d="M1.05859 181.008C215.246 74.7892 471.547 -3.65613 713.938 30.9163C905.562 58.2406 1097.99 171.515 1294.65 157.243C1425.34 147.75 1509.89 37.4266 1633.32 14.9771C1755.07 -7.18396 1865.96 84.25 1957.02 151.054C2006.47 187.326 2058.01 224.015 2116.34 244.668C2216.88 280.267 2308.63 256.791 2404.78 221.128" stroke="url(#paint_linear_104_13810_0)" stroke-opacity="1.000000" strokeWidth="1.000000"/>
		<path id="Vector" d="M1.05859 151.31C217.523 58.6896 470.234 -3.33545 707.852 26.0415C899.797 49.7739 1094.02 144.479 1289.62 131.522C1417.97 123.024 1516.11 30.7559 1639.95 10.6475C1754.24 -7.88953 1861.99 61.127 1955.51 117.315C2107.52 208.653 2232.96 237.485 2404.78 181.2" stroke="url(#paint_linear_104_13811_0)" stroke-opacity="1.000000" strokeWidth="1.000000"/>
		<path id="Vector" d="M1.05859 121.613C218.805 44.2257 458.504 1.60352 690.383 21.1989C886.336 37.7795 1081.2 115.198 1279.17 105.257C1411.95 98.5858 1525.73 19.8839 1656.42 6.54248C1764.4 -4.48987 1866.32 44.6106 1961.31 89.5098C2113.68 161.573 2239.28 188.769 2404.78 142.106" stroke="url(#paint_linear_104_13812_0)" stroke-opacity="1.000000" strokeWidth="1.000000"/>
		<path id="Vector" d="M1.05859 91.915C222.715 30.4032 459.367 1.76392 689.516 18.0879C881.59 31.718 1074.4 88.9645 1267.76 80.6582C1403.55 74.8213 1530.28 17.0297 1665.01 5.16345C1778.41 -4.81067 1884.88 34.7648 1990.32 71.2614C2131.95 120.298 2256.75 138.546 2404.78 104.294" stroke="url(#paint_linear_104_13813_0)" stroke-opacity="1.000000" strokeWidth="1.000000"/>
		<path id="Vector" d="M1.05859 62.2495C219.477 19.916 445.746 3.20715 668.203 13.149C861.914 21.8082 1055.39 59.7802 1249.65 54.6488C1398.36 50.7361 1543.45 11.0645 1691.84 3.33545C1797.73 -2.18079 1900.1 22.2251 2002.56 45.9255C2139.03 77.4832 2265.53 92.1716 2404.78 68.1506" stroke="url(#paint_linear_104_13814_0)" stroke-opacity="1.000000" strokeWidth="1.000000"/>
		<path id="Vector" d="M1.05859 32.552C217.746 10.1024 436.645 3.20715 654.453 8.11401C845.953 12.4436 1037.35 31.5258 1229.01 28.9601C1392.02 26.7792 1554.18 6.3822 1717.12 2.34119C1948.23 -3.39941 2172.97 57.5352 2404.78 34.1876" stroke="url(#paint_linear_104_13815_0)" stroke-opacity="1.000000" strokeWidth="1.000000"/>
		<path id="Vector" d="M1.05859 2.85437C802.27 -1.57141 1603.57 7.69702 2404.78 2.85437" stroke="url(#paint_linear_104_13816_0)" stroke-opacity="1.000000" strokeWidth="1.000000"/>
	</g>
</svg>
