<?xml version="1.0" encoding="utf-8"?>
<svg viewBox="866.046142578125 75.9769287109375 465.699951171875 196.49996948242188" width="465.699951171875" height="196.49996948242188" xmlns="http://www.w3.org/2000/svg"><path d="M879.5,204.6c3.6-4.9,8.8-11.4,17.9-11.4s17.3-3.5,29.3-3.5c12,0,33.1-9.7,36.3-12.9c3.2-3.2,5-11.7,6.7-17.8&#10;&#9;&#9;c1.7-6.1-10.5-11.4-15.3-10c-4.9,1.4-7.3,2.1-22.5,4.3c-15.2,2.1-18.9,2.5-21.4,0c-2.5-2.5-3.2-6.7-8.1-8.1&#10;&#9;&#9;c-4.9-1.4-3.7-6.2-6.4-12.9c-2.8-6.7,3.2-13,12.2-17.7c9.1-4.7,9.9-17,17-19.3c7.1-2.4,13.8-0.4,11.8-9.9c-2-9.5,5.5-7.5,13,0&#10;&#9;&#9;c7.5,7.5,23.9,9.1,37.1,11.8c12.5,2.6,43.4,8.3,66.2,15.8c22.8,7.4,44.5,9.4,69.4,3.8c24.9-5.6,35.8-5.9,64.1-9.4&#10;&#9;&#9;c1.8-0.2,3.6-0.3,5.3-0.2c11.9-6.3,21.7-13.4,44.1-6.9c25.2,7.3,43.3,19.3,61.1,13.2c17.3-5.9,19.9-19.3,19.9-32.2&#10;&#9;&#9;c0-10,7.3-10.2,8.2,0c0.9,10.2-0.4,36.8-20.8,43.1c-20.7,6.4-33.6,3.5-55.3-6.7c-18.3-8.6-30.9-9.8-38.9-4.4&#10;&#9;&#9;c16.1,10.1,27.8,29.4,32.9,34.4c7.3,7.3,27,4.9,34.5,0.9c7.4-3.9,20.8,6.8,27.5,8.4c6.7,1.5,20.2,7.6,26.4,10&#10;&#9;&#9;c6.2,2.4,9.8,4.8,0,14.6c-9.8,9.8-33.6-7.9-37.8-10.2c-4.3-2.3-20.8-0.9-17.3,0.3c3.5,1.2,11.2,14.4,16.4,19.6&#10;&#9;&#9;c5.2,5.2,7.7,8.5,14.3,10.5c6.5,2,8.5,8.2,8.5,16.3c0,8.1-13.2,5.3-19.6,2c-6.4-3.3-12.8-12.2-17.9-21c-5.2-8.8-28.2-9-42.1-3.9&#10;&#9;&#9;c-13.8,5-35.8-5.8-47.5-9.6c-11.7-3.8-42.8-1.2-50.9,1.1c-8.1,2.3-26.3,11.5-44,20.2c-17.8,8.7-41.6,4.7-53.5,2.1&#10;&#9;&#9;c-11.8-2.6-22.3-4.9-23.7-0.6c-1.4,4.3-12.3,10.6-16.4,16.7c-4.1,6.1-16.1,19.4-20.4,26c-4.3,6.5-4.1,8.5-8.7,10.6&#10;&#9;&#9;c-4.6,2.1-23.5,2.9-27.5,3.6c-3.9,0.8-11.1,2.3-13.9-1.8c-2.8-4.1,1.4-8.7,4.3-11.7c5.2-6.5,16.1-6.8,28.2-12.6&#10;&#9;&#9;c12.2-5.8,14.3-21.6,22.2-33.7c-1.6,1.6-12.1,1.4-22.3,0.5c-10.2-0.9-31.1-0.5-35.1,3.5c-4,4-8.8,0.9-13.4,0.2&#10;&#9;&#9;c-4.6-0.8-7.1,1.5-9.3,3.6c-2.1,2.1-8.2,2.9-15.9,2.9C880.5,216.1,875.8,209.4,879.5,204.6z" transform="matrix(1, 0, 0, 1, -9.753809928894043, 4.8769049644470215)" style="fill: rgb(204, 204, 204); opacity: 1;"/></svg>