<svg width="82.000000" height="82.000000" viewBox="0 0 82 82" fill="none" xmlns="http://www.w3.org/2000/svg" xmlns:xlink="http://www.w3.org/1999/xlink">
	<desc>
			Created with Pixso.
	</desc>
	<defs>
		<clipPath id="clip104_13280">
			<rect id="Icon" width="34.000000" height="34.000000" transform="translate(24.000000 24.000000)" fill="white" fill-opacity="0"/>
		</clipPath>
		<linearGradient id="paint_linear_104_13261_0" x1="6.750008" y1="86.499977" x2="85.750023" y2="-5.499985" gradientUnits="userSpaceOnUse">
			<stop stop-color="#A685FA"/>
			<stop offset="0.323723" stop-color="#A685FA" stop-opacity="0.000000"/>
		</linearGradient>
		<linearGradient id="paint_linear_104_13261_1" x1="81.750000" y1="-10.500015" x2="6.750031" y2="82.000008" gradientUnits="userSpaceOnUse">
			<stop stop-color="#A685FA"/>
			<stop offset="0.576615" stop-color="#A685FA" stop-opacity="0.000000"/>
		</linearGradient>
		<linearGradient id="paint_linear_104_13262_0" x1="3.250000" y1="13.500000" x2="71.750000" y2="72.000000" gradientUnits="userSpaceOnUse">
			<stop stop-color="#A685FA"/>
			<stop offset="0.323723" stop-color="#A685FA" stop-opacity="0.000000"/>
		</linearGradient>
		<linearGradient id="paint_linear_104_13262_1" x1="84.250000" y1="86.000015" x2="12.249989" y2="35.000031" gradientUnits="userSpaceOnUse">
			<stop stop-color="#A685FA"/>
			<stop offset="0.576615" stop-color="#A685FA" stop-opacity="0.000000"/>
		</linearGradient>
	</defs>
	<g clipPath="url(#clip104_13280)">
		<path id="Vector" d="M41 55C33.2695 55 27 48.7311 27 41L41 41L41 55Z" fill="#A685FA" fill-opacity="1.000000" fillRule="evenodd"/>
		<path id="Vector" d="M27 27C34.7305 27 41 33.2689 41 41L27 41L27 27Z" fill="#A685FA" fill-opacity="1.000000" fillRule="evenodd"/>
		<path id="Vector" d="M41 55C48.7305 55 55 48.7311 55 41L41 41L41 55Z" fill="#A685FA" fill-opacity="1.000000" fillRule="evenodd"/>
		<path id="Vector" d="M55 41C55 33.2689 48.7305 27 41 27L41 41L55 41Z" fill="#A685FA" fill-opacity="1.000000" fillRule="evenodd"/>
	</g>
	<rect id="Container" rx="15.500000" width="61.000000" height="61.000000" transform="translate(10.500000 10.500000)" stroke="url(#paint_linear_104_13262_0)" stroke-opacity="1.000000" strokeWidth="1.000000"/>
	<rect id="Container" rx="15.500000" width="61.000000" height="61.000000" transform="translate(10.500000 10.500000)" stroke="url(#paint_linear_104_13262_1)" stroke-opacity="1.000000" strokeWidth="1.000000"/>
	<rect id="Icon Container" rx="20.500000" width="81.000000" height="81.000000" transform="translate(0.500000 0.500000)" stroke="url(#paint_linear_104_13261_0)" stroke-opacity="1.000000" strokeWidth="1.000000"/>
	<rect id="Icon Container" rx="20.500000" width="81.000000" height="81.000000" transform="translate(0.500000 0.500000)" stroke="url(#paint_linear_104_13261_1)" stroke-opacity="1.000000" strokeWidth="1.000000"/>
</svg>
